{"title":"Fringe S03E13 HDTV XviD-LOL {TheCloon}","uid":6169896,"size":366801632,"categoryP":"video","categoryS":"tv_shows","magnet":"?xt=urn:btih:9ded4921f2854fcad7e977dfdcf3fa38a1c3fa96&amp;dn=Fringe+S03E13+HDTV+XviD-LOL+%7BTheCloon%7D&amp;tr=udp%3A%2F%2Ftracker.openbittorrent.com%3A80&amp;tr=udp%3A%2F%2Fopen.demonii.com%3A1337&amp;tr=udp%3A%2F%2Ftracker.coppersurfer.tk%3A6969&amp;tr=udp%3A%2F%2Fexodus.desync.com%3A6969","seeders":0,"leechers":0,"uploader":"TheCloon","files":4,"time":1297529424,"description":"###\n\nFringe S03E13 HDTV XviD-LOL\n\n###\n\nPlot:\n\n56: 3x13 -- Immortality (Feb/11/2011)\nA terrorist Over There arms himself with an insect that enjoys human flesh; alternate Olivia is reunited with her boyfriend; despite remaining determined to save his world, Walternate discovers there are lines he won't cross.\n\n###\n[code]\nFormat                           : AVI\nFormat/Info                      : Audio Video Interleave\nFile size                        : 350 MiB\nDuration                         : 43mn 13s\nOverall bit rate                 : 1 132 Kbps\nWriting application              : transcode-1.0.6\n\nVideo\nID                               : 0\nFormat                           : MPEG-4 Visual\nFormat profile                   : Advanced Simple@L5\nFormat settings, BVOP            : 2\nFormat settings, QPel            : No\nFormat settings, GMC             : No warppoints\nFormat settings, Matrix          : Default (H.263)\nCodec ID                         : XVID\nCodec ID/Hint                    : XviD\nDuration                         : 43mn 13s\nBit rate                         : 988 Kbps\nWidth                            : 624 pixels\nHeight                           : 352 pixels\nDisplay aspect ratio             : 16:9\nFrame rate                       : 23.976 fps\nColor space                      : YUV\nChroma subsampling               : 4:2:0\nBit depth                        : 8 bits\nScan type                        : Progressive\nCompression mode                 : Lossy\nBits/(Pixel*Frame)               : 0.188\nStream size                      : 306 MiB (87%)\nWriting library                  : XviD 1.2.1 (UTC 2008-12-04)\n\nAudio\nID                               : 1\nFormat                           : MPEG Audio\nFormat version                   : Version 1\nFormat profile                   : Layer 3\nMode                             : Joint stereo\nMode extension                   : MS Stereo\nCodec ID                         : 55\nCodec ID/Hint                    : MP3\nDuration                         : 43mn 13s\nBit rate mode                    : Variable\nBit rate                         : 128 Kbps\nChannel(s)                       : 2 channels\nSampling rate                    : 48.0 KHz\nCompression mode                 : Lossy\nStream size                      : 40.4 MiB (12%)\nAlignment                        : Aligned on interleaves\nInterleave, duration             : 24 ms (0.58 video frame)\nWriting library                  : LAME3.90.\nEncoding settings                : -m j -V 4 -q 2 -lowpass 17.6 --abr 128\n[/code]\n","torrent":{"xt":"urn:btih:9ded4921f2854fcad7e977dfdcf3fa38a1c3fa96","amp;dn":"Fringe+S03E13+HDTV+XviD-LOL+%7BTheCloon%7D","amp;tr":["udp%3A%2F%2Ftracker.openbittorrent.com%3A80","udp%3A%2F%2Fopen.demonii.com%3A1337","udp%3A%2F%2Ftracker.coppersurfer.tk%3A6969","udp%3A%2F%2Fexodus.desync.com%3A6969"],"infoHash":"9ded4921f2854fcad7e977dfdcf3fa38a1c3fa96","infoHashBuffer":{"type":"Buffer","data":[157,237,73,33,242,133,79,202,215,233,119,223,220,243,250,56,161,195,250,150]},"announce":[],"urlList":[]}}